<mxfile host="app.diagrams.net" modified="2024-04-27T05:49:45.540Z" agent="Mozilla/5.0 (Windows NT 10.0; Win64; x64) AppleWebKit/537.36 (KHTML, like Gecko) Chrome/123.0.0.0 Safari/537.36" etag="14h3M9VMt88BJ_jdxvWS" version="24.2.5" type="google">
  <diagram name="Page-1" id="AY1h7rt56vw9ZxVU6xea">
    <mxGraphModel grid="1" page="1" gridSize="10" guides="1" tooltips="1" connect="1" arrows="1" fold="1" pageScale="1" pageWidth="850" pageHeight="1100" math="0" shadow="0">
      <root>
        <mxCell id="0" />
        <mxCell id="1" parent="0" />
        <mxCell id="KwTNZy9iFzEqx0LIsOk2-51" value="Comments" style="whiteSpace=wrap;html=1;align=center;" vertex="1" parent="1">
          <mxGeometry x="-40" y="290" width="100" height="40" as="geometry" />
        </mxCell>
        <mxCell id="KwTNZy9iFzEqx0LIsOk2-52" value="text" style="ellipse;whiteSpace=wrap;html=1;align=center;" vertex="1" parent="1">
          <mxGeometry x="15" y="230" width="30" height="20" as="geometry" />
        </mxCell>
        <mxCell id="KwTNZy9iFzEqx0LIsOk2-53" value="user_id" style="ellipse;whiteSpace=wrap;html=1;align=center;fontStyle=4;" vertex="1" parent="1">
          <mxGeometry x="-5" y="205" width="45" height="20" as="geometry" />
        </mxCell>
        <mxCell id="KwTNZy9iFzEqx0LIsOk2-54" value="creation_date" style="ellipse;whiteSpace=wrap;html=1;align=center;" vertex="1" parent="1">
          <mxGeometry x="70" y="270" width="80" height="20" as="geometry" />
        </mxCell>
        <mxCell id="KwTNZy9iFzEqx0LIsOk2-64" value="post_id" style="ellipse;whiteSpace=wrap;html=1;align=center;" vertex="1" parent="1">
          <mxGeometry x="-50" y="225" width="50" height="15" as="geometry" />
        </mxCell>
        <mxCell id="KwTNZy9iFzEqx0LIsOk2-65" value="id" style="ellipse;whiteSpace=wrap;html=1;align=center;" vertex="1" parent="1">
          <mxGeometry x="77.5" y="300" width="22.5" height="20" as="geometry" />
        </mxCell>
        <mxCell id="KwTNZy9iFzEqx0LIsOk2-66" value="user_display_name" style="ellipse;whiteSpace=wrap;html=1;align=center;" vertex="1" parent="1">
          <mxGeometry x="-130" y="240" width="110" height="30" as="geometry" />
        </mxCell>
        <mxCell id="KwTNZy9iFzEqx0LIsOk2-67" value="score" style="ellipse;whiteSpace=wrap;html=1;align=center;" vertex="1" parent="1">
          <mxGeometry x="42.5" y="245" width="40" height="15" as="geometry" />
        </mxCell>
        <mxCell id="KwTNZy9iFzEqx0LIsOk2-84" value="posts_questions" style="whiteSpace=wrap;html=1;align=center;" vertex="1" parent="1">
          <mxGeometry x="10" y="635" width="100" height="40" as="geometry" />
        </mxCell>
        <mxCell id="KwTNZy9iFzEqx0LIsOk2-85" value="title" style="ellipse;whiteSpace=wrap;html=1;align=center;" vertex="1" parent="1">
          <mxGeometry x="57.5" y="550" width="32.5" height="20" as="geometry" />
        </mxCell>
        <mxCell id="KwTNZy9iFzEqx0LIsOk2-86" value="id" style="ellipse;whiteSpace=wrap;html=1;align=center;fontStyle=4;" vertex="1" parent="1">
          <mxGeometry x="17.5" y="690" width="25" height="20" as="geometry" />
        </mxCell>
        <mxCell id="KwTNZy9iFzEqx0LIsOk2-87" value="body" style="ellipse;whiteSpace=wrap;html=1;align=center;" vertex="1" parent="1">
          <mxGeometry x="-50" y="600" width="35" height="20" as="geometry" />
        </mxCell>
        <mxCell id="KwTNZy9iFzEqx0LIsOk2-88" value="accepted_answer_id" style="ellipse;whiteSpace=wrap;html=1;align=center;" vertex="1" parent="1">
          <mxGeometry x="42.5" y="685" width="115" height="30" as="geometry" />
        </mxCell>
        <mxCell id="KwTNZy9iFzEqx0LIsOk2-89" value="answer_count" style="ellipse;whiteSpace=wrap;html=1;align=center;" vertex="1" parent="1">
          <mxGeometry x="117.5" y="600" width="85" height="20" as="geometry" />
        </mxCell>
        <mxCell id="KwTNZy9iFzEqx0LIsOk2-90" value="comment_count" style="ellipse;whiteSpace=wrap;html=1;align=center;" vertex="1" parent="1">
          <mxGeometry x="-70" y="500" width="95" height="20" as="geometry" />
        </mxCell>
        <mxCell id="KwTNZy9iFzEqx0LIsOk2-92" value="creation_date" style="ellipse;whiteSpace=wrap;html=1;align=center;" vertex="1" parent="1">
          <mxGeometry x="-150" y="600" width="85" height="20" as="geometry" />
        </mxCell>
        <mxCell id="KwTNZy9iFzEqx0LIsOk2-93" value="favorite_count" style="ellipse;whiteSpace=wrap;html=1;align=center;" vertex="1" parent="1">
          <mxGeometry x="90" y="550" width="85" height="20" as="geometry" />
        </mxCell>
        <mxCell id="KwTNZy9iFzEqx0LIsOk2-94" value="last_activity_date" style="ellipse;whiteSpace=wrap;html=1;align=center;" vertex="1" parent="1">
          <mxGeometry x="-110" y="520" width="100" height="20" as="geometry" />
        </mxCell>
        <mxCell id="KwTNZy9iFzEqx0LIsOk2-96" value="last_editor_display_name" style="ellipse;whiteSpace=wrap;html=1;align=center;" vertex="1" parent="1">
          <mxGeometry x="-150" y="645" width="145" height="20" as="geometry" />
        </mxCell>
        <mxCell id="KwTNZy9iFzEqx0LIsOk2-97" value="last_editor_user_id" style="ellipse;whiteSpace=wrap;html=1;align=center;" vertex="1" parent="1">
          <mxGeometry x="117.5" y="630" width="115" height="20" as="geometry" />
        </mxCell>
        <mxCell id="KwTNZy9iFzEqx0LIsOk2-98" value="owner_display_name" style="ellipse;whiteSpace=wrap;html=1;align=center;" vertex="1" parent="1">
          <mxGeometry x="115" y="655" width="120" height="20" as="geometry" />
        </mxCell>
        <mxCell id="KwTNZy9iFzEqx0LIsOk2-100" value="owner_user_id" style="ellipse;whiteSpace=wrap;html=1;align=center;" vertex="1" parent="1">
          <mxGeometry x="10" y="510" width="90" height="20" as="geometry" />
        </mxCell>
        <mxCell id="KwTNZy9iFzEqx0LIsOk2-101" value="parent_id" style="ellipse;whiteSpace=wrap;html=1;align=center;" vertex="1" parent="1">
          <mxGeometry x="157.5" y="685" width="60" height="20" as="geometry" />
        </mxCell>
        <mxCell id="KwTNZy9iFzEqx0LIsOk2-102" value="post_type_id" style="ellipse;whiteSpace=wrap;html=1;align=center;" vertex="1" parent="1">
          <mxGeometry x="60" y="530" width="75" height="20" as="geometry" />
        </mxCell>
        <mxCell id="KwTNZy9iFzEqx0LIsOk2-103" value="score" style="ellipse;whiteSpace=wrap;html=1;align=center;" vertex="1" parent="1">
          <mxGeometry x="-35" y="690" width="35" height="20" as="geometry" />
        </mxCell>
        <mxCell id="KwTNZy9iFzEqx0LIsOk2-105" value="view_count" style="ellipse;whiteSpace=wrap;html=1;align=center;" vertex="1" parent="1">
          <mxGeometry x="-75" y="665" width="65" height="20" as="geometry" />
        </mxCell>
        <mxCell id="KwTNZy9iFzEqx0LIsOk2-106" value="tags" style="whiteSpace=wrap;html=1;align=center;" vertex="1" parent="1">
          <mxGeometry x="-530" y="710" width="100" height="40" as="geometry" />
        </mxCell>
        <mxCell id="KwTNZy9iFzEqx0LIsOk2-107" value="tag_name" style="ellipse;whiteSpace=wrap;html=1;align=center;" vertex="1" parent="1">
          <mxGeometry x="-480" y="655" width="70" height="20" as="geometry" />
        </mxCell>
        <mxCell id="KwTNZy9iFzEqx0LIsOk2-108" value="id" style="ellipse;whiteSpace=wrap;html=1;align=center;fontStyle=4;" vertex="1" parent="1">
          <mxGeometry x="-505" y="640" width="30" height="20" as="geometry" />
        </mxCell>
        <mxCell id="KwTNZy9iFzEqx0LIsOk2-109" value="count" style="ellipse;whiteSpace=wrap;html=1;align=center;" vertex="1" parent="1">
          <mxGeometry x="-425" y="680" width="40" height="20" as="geometry" />
        </mxCell>
        <mxCell id="KwTNZy9iFzEqx0LIsOk2-110" value="excerpt_post_id" style="ellipse;whiteSpace=wrap;html=1;align=center;" vertex="1" parent="1">
          <mxGeometry x="-595" y="650" width="90" height="30" as="geometry" />
        </mxCell>
        <mxCell id="KwTNZy9iFzEqx0LIsOk2-111" value="wiki_post_id" style="ellipse;whiteSpace=wrap;html=1;align=center;" vertex="1" parent="1">
          <mxGeometry x="-630" y="690" width="80" height="20" as="geometry" />
        </mxCell>
        <mxCell id="KwTNZy9iFzEqx0LIsOk2-112" value="users" style="whiteSpace=wrap;html=1;align=center;" vertex="1" parent="1">
          <mxGeometry x="-540" y="330" width="80" height="40" as="geometry" />
        </mxCell>
        <mxCell id="KwTNZy9iFzEqx0LIsOk2-113" value="id" style="ellipse;whiteSpace=wrap;html=1;align=center;fontStyle=4;" vertex="1" parent="1">
          <mxGeometry x="-535" y="280" width="40" height="20" as="geometry" />
        </mxCell>
        <mxCell id="KwTNZy9iFzEqx0LIsOk2-114" value="display_name" style="ellipse;whiteSpace=wrap;html=1;align=center;" vertex="1" parent="1">
          <mxGeometry x="-595" y="250" width="80" height="20" as="geometry" />
        </mxCell>
        <mxCell id="KwTNZy9iFzEqx0LIsOk2-115" value="about_me" style="ellipse;whiteSpace=wrap;html=1;align=center;" vertex="1" parent="1">
          <mxGeometry x="-525" y="220" width="60" height="20" as="geometry" />
        </mxCell>
        <mxCell id="KwTNZy9iFzEqx0LIsOk2-116" value="age" style="ellipse;whiteSpace=wrap;html=1;align=center;" vertex="1" parent="1">
          <mxGeometry x="-480" y="240" width="45" height="20" as="geometry" />
        </mxCell>
        <mxCell id="KwTNZy9iFzEqx0LIsOk2-117" value="creation_date" style="ellipse;whiteSpace=wrap;html=1;align=center;" vertex="1" parent="1">
          <mxGeometry x="-640" y="370" width="80" height="20" as="geometry" />
        </mxCell>
        <mxCell id="KwTNZy9iFzEqx0LIsOk2-118" value="last_access_date" style="ellipse;whiteSpace=wrap;html=1;align=center;" vertex="1" parent="1">
          <mxGeometry x="-640" y="280" width="100" height="20" as="geometry" />
        </mxCell>
        <mxCell id="KwTNZy9iFzEqx0LIsOk2-119" value="location" style="ellipse;whiteSpace=wrap;html=1;align=center;" vertex="1" parent="1">
          <mxGeometry x="-465" y="260" width="55" height="20" as="geometry" />
        </mxCell>
        <mxCell id="KwTNZy9iFzEqx0LIsOk2-120" value="reputation" style="ellipse;whiteSpace=wrap;html=1;align=center;" vertex="1" parent="1">
          <mxGeometry x="-470" y="390" width="65" height="20" as="geometry" />
        </mxCell>
        <mxCell id="KwTNZy9iFzEqx0LIsOk2-121" value="up_votes" style="ellipse;whiteSpace=wrap;html=1;align=center;" vertex="1" parent="1">
          <mxGeometry x="-640" y="340" width="60" height="20" as="geometry" />
        </mxCell>
        <mxCell id="KwTNZy9iFzEqx0LIsOk2-122" value="down_votes" style="ellipse;whiteSpace=wrap;html=1;align=center;" vertex="1" parent="1">
          <mxGeometry x="-640" y="310" width="70" height="20" as="geometry" />
        </mxCell>
        <mxCell id="KwTNZy9iFzEqx0LIsOk2-123" value="views" style="ellipse;whiteSpace=wrap;html=1;align=center;" vertex="1" parent="1">
          <mxGeometry x="-430" y="280" width="45" height="20" as="geometry" />
        </mxCell>
        <mxCell id="KwTNZy9iFzEqx0LIsOk2-124" value="profile_image_url" style="ellipse;whiteSpace=wrap;html=1;align=center;" vertex="1" parent="1">
          <mxGeometry x="-440" y="350" width="100" height="20" as="geometry" />
        </mxCell>
        <mxCell id="KwTNZy9iFzEqx0LIsOk2-125" value="website_url" style="ellipse;whiteSpace=wrap;html=1;align=center;" vertex="1" parent="1">
          <mxGeometry x="-410" y="320" width="70" height="20" as="geometry" />
        </mxCell>
        <mxCell id="KwTNZy9iFzEqx0LIsOk2-131" value="Hall of Fame" style="shape=rhombus;perimeter=rhombusPerimeter;whiteSpace=wrap;html=1;align=center;" vertex="1" parent="1">
          <mxGeometry x="-290" y="200" width="120" height="60" as="geometry" />
        </mxCell>
        <mxCell id="KwTNZy9iFzEqx0LIsOk2-143" value="" style="endArrow=none;html=1;rounded=0;" edge="1" parent="1" source="KwTNZy9iFzEqx0LIsOk2-113" target="KwTNZy9iFzEqx0LIsOk2-112">
          <mxGeometry relative="1" as="geometry">
            <mxPoint x="-30" y="210" as="sourcePoint" />
            <mxPoint x="130" y="210" as="targetPoint" />
          </mxGeometry>
        </mxCell>
        <mxCell id="KwTNZy9iFzEqx0LIsOk2-148" value="" style="endArrow=none;html=1;rounded=0;" edge="1" parent="1" source="KwTNZy9iFzEqx0LIsOk2-116" target="KwTNZy9iFzEqx0LIsOk2-112">
          <mxGeometry relative="1" as="geometry">
            <mxPoint x="-210" y="210" as="sourcePoint" />
            <mxPoint x="-50" y="210" as="targetPoint" />
          </mxGeometry>
        </mxCell>
        <mxCell id="KwTNZy9iFzEqx0LIsOk2-149" value="" style="endArrow=none;html=1;rounded=0;" edge="1" parent="1" source="KwTNZy9iFzEqx0LIsOk2-112" target="KwTNZy9iFzEqx0LIsOk2-125">
          <mxGeometry relative="1" as="geometry">
            <mxPoint x="-210" y="210" as="sourcePoint" />
            <mxPoint x="-50" y="210" as="targetPoint" />
          </mxGeometry>
        </mxCell>
        <mxCell id="KwTNZy9iFzEqx0LIsOk2-150" value="" style="endArrow=none;html=1;rounded=0;" edge="1" parent="1" source="KwTNZy9iFzEqx0LIsOk2-112" target="KwTNZy9iFzEqx0LIsOk2-120">
          <mxGeometry relative="1" as="geometry">
            <mxPoint x="-150" y="210" as="sourcePoint" />
            <mxPoint x="10" y="210" as="targetPoint" />
          </mxGeometry>
        </mxCell>
        <mxCell id="KwTNZy9iFzEqx0LIsOk2-151" value="" style="endArrow=none;html=1;rounded=0;entryX=0.5;entryY=0;entryDx=0;entryDy=0;" edge="1" parent="1" source="KwTNZy9iFzEqx0LIsOk2-112" target="KwTNZy9iFzEqx0LIsOk2-117">
          <mxGeometry relative="1" as="geometry">
            <mxPoint x="-90" y="210" as="sourcePoint" />
            <mxPoint x="70" y="210" as="targetPoint" />
          </mxGeometry>
        </mxCell>
        <mxCell id="KwTNZy9iFzEqx0LIsOk2-152" value="" style="endArrow=none;html=1;rounded=0;" edge="1" parent="1" source="KwTNZy9iFzEqx0LIsOk2-112" target="KwTNZy9iFzEqx0LIsOk2-124">
          <mxGeometry relative="1" as="geometry">
            <mxPoint x="-90" y="210" as="sourcePoint" />
            <mxPoint x="70" y="210" as="targetPoint" />
          </mxGeometry>
        </mxCell>
        <mxCell id="KwTNZy9iFzEqx0LIsOk2-153" value="" style="endArrow=none;html=1;rounded=0;" edge="1" parent="1" source="KwTNZy9iFzEqx0LIsOk2-112" target="KwTNZy9iFzEqx0LIsOk2-119">
          <mxGeometry relative="1" as="geometry">
            <mxPoint x="-90" y="210" as="sourcePoint" />
            <mxPoint x="70" y="210" as="targetPoint" />
          </mxGeometry>
        </mxCell>
        <mxCell id="KwTNZy9iFzEqx0LIsOk2-154" value="" style="endArrow=none;html=1;rounded=0;" edge="1" parent="1" source="KwTNZy9iFzEqx0LIsOk2-112" target="KwTNZy9iFzEqx0LIsOk2-114">
          <mxGeometry relative="1" as="geometry">
            <mxPoint x="-90" y="210" as="sourcePoint" />
            <mxPoint x="70" y="210" as="targetPoint" />
          </mxGeometry>
        </mxCell>
        <mxCell id="KwTNZy9iFzEqx0LIsOk2-155" value="" style="endArrow=none;html=1;rounded=0;exitX=0.412;exitY=1.02;exitDx=0;exitDy=0;exitPerimeter=0;" edge="1" parent="1" source="KwTNZy9iFzEqx0LIsOk2-122" target="KwTNZy9iFzEqx0LIsOk2-112">
          <mxGeometry relative="1" as="geometry">
            <mxPoint x="-150" y="210" as="sourcePoint" />
            <mxPoint x="10" y="210" as="targetPoint" />
          </mxGeometry>
        </mxCell>
        <mxCell id="KwTNZy9iFzEqx0LIsOk2-156" value="" style="endArrow=none;html=1;rounded=0;exitX=0.571;exitY=0.983;exitDx=0;exitDy=0;exitPerimeter=0;" edge="1" parent="1" source="KwTNZy9iFzEqx0LIsOk2-115" target="KwTNZy9iFzEqx0LIsOk2-112">
          <mxGeometry relative="1" as="geometry">
            <mxPoint x="-150" y="210" as="sourcePoint" />
            <mxPoint x="10" y="210" as="targetPoint" />
          </mxGeometry>
        </mxCell>
        <mxCell id="KwTNZy9iFzEqx0LIsOk2-157" value="" style="endArrow=none;html=1;rounded=0;" edge="1" parent="1" source="KwTNZy9iFzEqx0LIsOk2-123" target="KwTNZy9iFzEqx0LIsOk2-112">
          <mxGeometry relative="1" as="geometry">
            <mxPoint x="-150" y="210" as="sourcePoint" />
            <mxPoint x="10" y="210" as="targetPoint" />
          </mxGeometry>
        </mxCell>
        <mxCell id="KwTNZy9iFzEqx0LIsOk2-158" value="" style="endArrow=none;html=1;rounded=0;" edge="1" parent="1" source="KwTNZy9iFzEqx0LIsOk2-121" target="KwTNZy9iFzEqx0LIsOk2-112">
          <mxGeometry relative="1" as="geometry">
            <mxPoint x="-210" y="210" as="sourcePoint" />
            <mxPoint x="-50" y="210" as="targetPoint" />
          </mxGeometry>
        </mxCell>
        <mxCell id="KwTNZy9iFzEqx0LIsOk2-159" value="" style="endArrow=none;html=1;rounded=0;" edge="1" parent="1" source="KwTNZy9iFzEqx0LIsOk2-112" target="KwTNZy9iFzEqx0LIsOk2-118">
          <mxGeometry relative="1" as="geometry">
            <mxPoint x="-150" y="-30" as="sourcePoint" />
            <mxPoint x="10" y="-30" as="targetPoint" />
          </mxGeometry>
        </mxCell>
        <mxCell id="KwTNZy9iFzEqx0LIsOk2-160" value="" style="endArrow=none;html=1;rounded=0;" edge="1" parent="1" source="KwTNZy9iFzEqx0LIsOk2-51" target="KwTNZy9iFzEqx0LIsOk2-53">
          <mxGeometry relative="1" as="geometry">
            <mxPoint x="350" y="755" as="sourcePoint" />
            <mxPoint x="510" y="755" as="targetPoint" />
          </mxGeometry>
        </mxCell>
        <mxCell id="KwTNZy9iFzEqx0LIsOk2-161" value="" style="endArrow=none;html=1;rounded=0;" edge="1" parent="1" source="KwTNZy9iFzEqx0LIsOk2-51" target="KwTNZy9iFzEqx0LIsOk2-54">
          <mxGeometry relative="1" as="geometry">
            <mxPoint x="350" y="755" as="sourcePoint" />
            <mxPoint x="510" y="755" as="targetPoint" />
          </mxGeometry>
        </mxCell>
        <mxCell id="KwTNZy9iFzEqx0LIsOk2-162" value="" style="endArrow=none;html=1;rounded=0;" edge="1" parent="1" source="KwTNZy9iFzEqx0LIsOk2-51" target="KwTNZy9iFzEqx0LIsOk2-65">
          <mxGeometry relative="1" as="geometry">
            <mxPoint x="350" y="755" as="sourcePoint" />
            <mxPoint x="510" y="755" as="targetPoint" />
          </mxGeometry>
        </mxCell>
        <mxCell id="KwTNZy9iFzEqx0LIsOk2-163" value="" style="endArrow=none;html=1;rounded=0;" edge="1" parent="1" source="KwTNZy9iFzEqx0LIsOk2-66" target="KwTNZy9iFzEqx0LIsOk2-51">
          <mxGeometry relative="1" as="geometry">
            <mxPoint x="350" y="755" as="sourcePoint" />
            <mxPoint x="510" y="755" as="targetPoint" />
          </mxGeometry>
        </mxCell>
        <mxCell id="KwTNZy9iFzEqx0LIsOk2-164" value="" style="endArrow=none;html=1;rounded=0;" edge="1" parent="1" source="KwTNZy9iFzEqx0LIsOk2-64" target="KwTNZy9iFzEqx0LIsOk2-51">
          <mxGeometry relative="1" as="geometry">
            <mxPoint x="371.31136714037734" y="716.2667364928302" as="sourcePoint" />
            <mxPoint x="410" y="725" as="targetPoint" />
          </mxGeometry>
        </mxCell>
        <mxCell id="KwTNZy9iFzEqx0LIsOk2-165" value="" style="endArrow=none;html=1;rounded=0;" edge="1" parent="1" source="KwTNZy9iFzEqx0LIsOk2-52" target="KwTNZy9iFzEqx0LIsOk2-51">
          <mxGeometry relative="1" as="geometry">
            <mxPoint x="350" y="755" as="sourcePoint" />
            <mxPoint x="510" y="755" as="targetPoint" />
          </mxGeometry>
        </mxCell>
        <mxCell id="KwTNZy9iFzEqx0LIsOk2-166" value="" style="endArrow=none;html=1;rounded=0;exitX=0.362;exitY=0.883;exitDx=0;exitDy=0;exitPerimeter=0;" edge="1" parent="1" source="KwTNZy9iFzEqx0LIsOk2-67" target="KwTNZy9iFzEqx0LIsOk2-51">
          <mxGeometry relative="1" as="geometry">
            <mxPoint x="199.9999999999997" y="79.59999999999991" as="sourcePoint" />
            <mxPoint x="283.009375" y="290" as="targetPoint" />
          </mxGeometry>
        </mxCell>
        <mxCell id="KwTNZy9iFzEqx0LIsOk2-167" value="" style="endArrow=none;html=1;rounded=0;" edge="1" parent="1" source="KwTNZy9iFzEqx0LIsOk2-107" target="KwTNZy9iFzEqx0LIsOk2-106">
          <mxGeometry relative="1" as="geometry">
            <mxPoint x="-625" y="760" as="sourcePoint" />
            <mxPoint x="-465" y="760" as="targetPoint" />
          </mxGeometry>
        </mxCell>
        <mxCell id="KwTNZy9iFzEqx0LIsOk2-168" value="" style="endArrow=none;html=1;rounded=0;" edge="1" parent="1" source="KwTNZy9iFzEqx0LIsOk2-106" target="KwTNZy9iFzEqx0LIsOk2-110">
          <mxGeometry relative="1" as="geometry">
            <mxPoint x="-565" y="760" as="sourcePoint" />
            <mxPoint x="-405" y="760" as="targetPoint" />
          </mxGeometry>
        </mxCell>
        <mxCell id="KwTNZy9iFzEqx0LIsOk2-169" value="" style="endArrow=none;html=1;rounded=0;" edge="1" parent="1" source="KwTNZy9iFzEqx0LIsOk2-111" target="KwTNZy9iFzEqx0LIsOk2-106">
          <mxGeometry relative="1" as="geometry">
            <mxPoint x="-565" y="760" as="sourcePoint" />
            <mxPoint x="-405" y="760" as="targetPoint" />
          </mxGeometry>
        </mxCell>
        <mxCell id="KwTNZy9iFzEqx0LIsOk2-170" value="" style="endArrow=none;html=1;rounded=0;" edge="1" parent="1" source="KwTNZy9iFzEqx0LIsOk2-109" target="KwTNZy9iFzEqx0LIsOk2-106">
          <mxGeometry relative="1" as="geometry">
            <mxPoint x="-565" y="760" as="sourcePoint" />
            <mxPoint x="-405" y="760" as="targetPoint" />
          </mxGeometry>
        </mxCell>
        <mxCell id="KwTNZy9iFzEqx0LIsOk2-171" value="" style="endArrow=none;html=1;rounded=0;" edge="1" parent="1" source="KwTNZy9iFzEqx0LIsOk2-106" target="KwTNZy9iFzEqx0LIsOk2-108">
          <mxGeometry relative="1" as="geometry">
            <mxPoint x="-505" y="760" as="sourcePoint" />
            <mxPoint x="-345" y="760" as="targetPoint" />
          </mxGeometry>
        </mxCell>
        <mxCell id="KwTNZy9iFzEqx0LIsOk2-172" value="" style="endArrow=none;html=1;rounded=0;" edge="1" parent="1" source="KwTNZy9iFzEqx0LIsOk2-84" target="KwTNZy9iFzEqx0LIsOk2-97">
          <mxGeometry relative="1" as="geometry">
            <mxPoint x="-20" y="170" as="sourcePoint" />
            <mxPoint x="140" y="170" as="targetPoint" />
          </mxGeometry>
        </mxCell>
        <mxCell id="KwTNZy9iFzEqx0LIsOk2-173" value="" style="endArrow=none;html=1;rounded=0;" edge="1" parent="1" source="KwTNZy9iFzEqx0LIsOk2-85" target="KwTNZy9iFzEqx0LIsOk2-84">
          <mxGeometry relative="1" as="geometry">
            <mxPoint x="-20" y="170" as="sourcePoint" />
            <mxPoint x="140" y="170" as="targetPoint" />
          </mxGeometry>
        </mxCell>
        <mxCell id="KwTNZy9iFzEqx0LIsOk2-174" value="" style="endArrow=none;html=1;rounded=0;" edge="1" parent="1" source="KwTNZy9iFzEqx0LIsOk2-84" target="KwTNZy9iFzEqx0LIsOk2-87">
          <mxGeometry relative="1" as="geometry">
            <mxPoint x="-20" y="170" as="sourcePoint" />
            <mxPoint x="140" y="170" as="targetPoint" />
          </mxGeometry>
        </mxCell>
        <mxCell id="KwTNZy9iFzEqx0LIsOk2-175" value="" style="endArrow=none;html=1;rounded=0;" edge="1" parent="1" source="KwTNZy9iFzEqx0LIsOk2-91" target="KwTNZy9iFzEqx0LIsOk2-84">
          <mxGeometry relative="1" as="geometry">
            <mxPoint x="-20" y="170" as="sourcePoint" />
            <mxPoint x="140" y="170" as="targetPoint" />
          </mxGeometry>
        </mxCell>
        <mxCell id="KwTNZy9iFzEqx0LIsOk2-176" value="" style="endArrow=none;html=1;rounded=0;" edge="1" parent="1" source="KwTNZy9iFzEqx0LIsOk2-86" target="KwTNZy9iFzEqx0LIsOk2-84">
          <mxGeometry relative="1" as="geometry">
            <mxPoint x="-140" y="170" as="sourcePoint" />
            <mxPoint x="20" y="170" as="targetPoint" />
          </mxGeometry>
        </mxCell>
        <mxCell id="KwTNZy9iFzEqx0LIsOk2-177" value="" style="endArrow=none;html=1;rounded=0;" edge="1" parent="1" source="KwTNZy9iFzEqx0LIsOk2-90" target="KwTNZy9iFzEqx0LIsOk2-84">
          <mxGeometry relative="1" as="geometry">
            <mxPoint x="-140" y="290" as="sourcePoint" />
            <mxPoint x="20" y="290" as="targetPoint" />
          </mxGeometry>
        </mxCell>
        <mxCell id="KwTNZy9iFzEqx0LIsOk2-178" value="" style="endArrow=none;html=1;rounded=0;" edge="1" parent="1" source="KwTNZy9iFzEqx0LIsOk2-92" target="KwTNZy9iFzEqx0LIsOk2-84">
          <mxGeometry relative="1" as="geometry">
            <mxPoint x="-140" y="290" as="sourcePoint" />
            <mxPoint x="20" y="290" as="targetPoint" />
          </mxGeometry>
        </mxCell>
        <mxCell id="KwTNZy9iFzEqx0LIsOk2-179" value="" style="endArrow=none;html=1;rounded=0;" edge="1" parent="1" source="KwTNZy9iFzEqx0LIsOk2-84" target="KwTNZy9iFzEqx0LIsOk2-91">
          <mxGeometry relative="1" as="geometry">
            <mxPoint x="-80" y="290" as="sourcePoint" />
            <mxPoint x="80" y="290" as="targetPoint" />
          </mxGeometry>
        </mxCell>
        <mxCell id="KwTNZy9iFzEqx0LIsOk2-180" value="" style="endArrow=none;html=1;rounded=0;" edge="1" parent="1" source="KwTNZy9iFzEqx0LIsOk2-84" target="KwTNZy9iFzEqx0LIsOk2-88">
          <mxGeometry relative="1" as="geometry">
            <mxPoint x="40" y="290" as="sourcePoint" />
            <mxPoint x="200" y="290" as="targetPoint" />
          </mxGeometry>
        </mxCell>
        <mxCell id="KwTNZy9iFzEqx0LIsOk2-181" value="" style="endArrow=none;html=1;rounded=0;" edge="1" parent="1" source="KwTNZy9iFzEqx0LIsOk2-84" target="KwTNZy9iFzEqx0LIsOk2-95">
          <mxGeometry relative="1" as="geometry">
            <mxPoint x="40" y="290" as="sourcePoint" />
            <mxPoint x="200" y="290" as="targetPoint" />
          </mxGeometry>
        </mxCell>
        <mxCell id="KwTNZy9iFzEqx0LIsOk2-182" value="" style="endArrow=none;html=1;rounded=0;" edge="1" parent="1" source="KwTNZy9iFzEqx0LIsOk2-84" target="KwTNZy9iFzEqx0LIsOk2-93">
          <mxGeometry relative="1" as="geometry">
            <mxPoint x="-20" y="290" as="sourcePoint" />
            <mxPoint x="140" y="290" as="targetPoint" />
          </mxGeometry>
        </mxCell>
        <mxCell id="KwTNZy9iFzEqx0LIsOk2-183" value="" style="endArrow=none;html=1;rounded=0;" edge="1" parent="1" source="KwTNZy9iFzEqx0LIsOk2-94" target="KwTNZy9iFzEqx0LIsOk2-84">
          <mxGeometry relative="1" as="geometry">
            <mxPoint x="-80" y="350" as="sourcePoint" />
            <mxPoint x="80" y="350" as="targetPoint" />
          </mxGeometry>
        </mxCell>
        <mxCell id="KwTNZy9iFzEqx0LIsOk2-184" value="" style="endArrow=none;html=1;rounded=0;" edge="1" parent="1" source="KwTNZy9iFzEqx0LIsOk2-84" target="KwTNZy9iFzEqx0LIsOk2-96">
          <mxGeometry relative="1" as="geometry">
            <mxPoint x="-80" y="350" as="sourcePoint" />
            <mxPoint x="80" y="350" as="targetPoint" />
          </mxGeometry>
        </mxCell>
        <mxCell id="KwTNZy9iFzEqx0LIsOk2-186" value="" style="endArrow=none;html=1;rounded=0;" edge="1" parent="1" source="KwTNZy9iFzEqx0LIsOk2-104" target="KwTNZy9iFzEqx0LIsOk2-84">
          <mxGeometry relative="1" as="geometry">
            <mxPoint x="-80" y="410" as="sourcePoint" />
            <mxPoint x="80" y="410" as="targetPoint" />
          </mxGeometry>
        </mxCell>
        <mxCell id="KwTNZy9iFzEqx0LIsOk2-187" value="" style="endArrow=none;html=1;rounded=0;" edge="1" parent="1" source="KwTNZy9iFzEqx0LIsOk2-101" target="KwTNZy9iFzEqx0LIsOk2-84">
          <mxGeometry relative="1" as="geometry">
            <mxPoint x="-80" y="410" as="sourcePoint" />
            <mxPoint x="80" y="410" as="targetPoint" />
          </mxGeometry>
        </mxCell>
        <mxCell id="KwTNZy9iFzEqx0LIsOk2-188" value="" style="endArrow=none;html=1;rounded=0;" edge="1" parent="1" source="KwTNZy9iFzEqx0LIsOk2-84" target="KwTNZy9iFzEqx0LIsOk2-100">
          <mxGeometry relative="1" as="geometry">
            <mxPoint x="-80" y="410" as="sourcePoint" />
            <mxPoint x="80" y="410" as="targetPoint" />
          </mxGeometry>
        </mxCell>
        <mxCell id="KwTNZy9iFzEqx0LIsOk2-189" value="" style="endArrow=none;html=1;rounded=0;" edge="1" parent="1" source="KwTNZy9iFzEqx0LIsOk2-84" target="KwTNZy9iFzEqx0LIsOk2-104">
          <mxGeometry relative="1" as="geometry">
            <mxPoint x="-80" y="410" as="sourcePoint" />
            <mxPoint x="30.552452462063457" y="540.0012208733056" as="targetPoint" />
          </mxGeometry>
        </mxCell>
        <mxCell id="KwTNZy9iFzEqx0LIsOk2-190" value="" style="endArrow=none;html=1;rounded=0;" edge="1" parent="1" source="KwTNZy9iFzEqx0LIsOk2-105" target="KwTNZy9iFzEqx0LIsOk2-84">
          <mxGeometry relative="1" as="geometry">
            <mxPoint x="-80" y="410" as="sourcePoint" />
            <mxPoint x="80" y="410" as="targetPoint" />
          </mxGeometry>
        </mxCell>
        <mxCell id="KwTNZy9iFzEqx0LIsOk2-191" value="" style="endArrow=none;html=1;rounded=0;" edge="1" parent="1" source="KwTNZy9iFzEqx0LIsOk2-84" target="KwTNZy9iFzEqx0LIsOk2-98">
          <mxGeometry relative="1" as="geometry">
            <mxPoint x="40" y="410" as="sourcePoint" />
            <mxPoint x="200" y="410" as="targetPoint" />
          </mxGeometry>
        </mxCell>
        <mxCell id="KwTNZy9iFzEqx0LIsOk2-192" value="" style="endArrow=none;html=1;rounded=0;" edge="1" parent="1" source="KwTNZy9iFzEqx0LIsOk2-84" target="KwTNZy9iFzEqx0LIsOk2-102">
          <mxGeometry relative="1" as="geometry">
            <mxPoint x="40" y="410" as="sourcePoint" />
            <mxPoint x="200" y="410" as="targetPoint" />
          </mxGeometry>
        </mxCell>
        <mxCell id="7jd7Q7iama4mhCfgH1NF-1" value="" style="endArrow=none;html=1;rounded=0;" edge="1" parent="1" source="KwTNZy9iFzEqx0LIsOk2-103" target="KwTNZy9iFzEqx0LIsOk2-84">
          <mxGeometry relative="1" as="geometry">
            <mxPoint x="-124" y="509" as="sourcePoint" />
            <mxPoint x="18" y="670" as="targetPoint" />
          </mxGeometry>
        </mxCell>
        <mxCell id="KwTNZy9iFzEqx0LIsOk2-104" value="tags" style="ellipse;whiteSpace=wrap;html=1;align=center;" vertex="1" parent="1">
          <mxGeometry x="17.5" y="560" width="35" height="20" as="geometry" />
        </mxCell>
        <mxCell id="7jd7Q7iama4mhCfgH1NF-3" value="" style="endArrow=none;html=1;rounded=0;" edge="1" parent="1" source="KwTNZy9iFzEqx0LIsOk2-89" target="KwTNZy9iFzEqx0LIsOk2-84">
          <mxGeometry relative="1" as="geometry">
            <mxPoint x="33" y="200" as="sourcePoint" />
            <mxPoint x="40" y="670" as="targetPoint" />
          </mxGeometry>
        </mxCell>
        <mxCell id="KwTNZy9iFzEqx0LIsOk2-91" value="community_owned_date" style="ellipse;whiteSpace=wrap;html=1;align=center;" vertex="1" parent="1">
          <mxGeometry x="-85" y="710" width="135" height="30" as="geometry" />
        </mxCell>
        <mxCell id="7jd7Q7iama4mhCfgH1NF-4" value="" style="endArrow=none;html=1;rounded=0;" edge="1" parent="1" source="KwTNZy9iFzEqx0LIsOk2-84" target="KwTNZy9iFzEqx0LIsOk2-95">
          <mxGeometry relative="1" as="geometry">
            <mxPoint x="55" y="670" as="sourcePoint" />
            <mxPoint x="285" y="360" as="targetPoint" />
          </mxGeometry>
        </mxCell>
        <mxCell id="KwTNZy9iFzEqx0LIsOk2-95" value="last_edit_date" style="ellipse;whiteSpace=wrap;html=1;align=center;" vertex="1" parent="1">
          <mxGeometry x="110" y="570" width="85" height="20" as="geometry" />
        </mxCell>
        <mxCell id="7jd7Q7iama4mhCfgH1NF-6" value="User Engagement Metrics" style="shape=rhombus;perimeter=rhombusPerimeter;whiteSpace=wrap;html=1;align=center;" vertex="1" parent="1">
          <mxGeometry x="-750" y="450" width="140" height="70" as="geometry" />
        </mxCell>
        <mxCell id="7jd7Q7iama4mhCfgH1NF-9" value="Recommendations" style="shape=rhombus;perimeter=rhombusPerimeter;whiteSpace=wrap;html=1;align=center;" vertex="1" parent="1">
          <mxGeometry x="-440" y="550" width="120" height="60" as="geometry" />
        </mxCell>
        <mxCell id="7jd7Q7iama4mhCfgH1NF-12" value="Trending Topics" style="shape=rhombus;perimeter=rhombusPerimeter;whiteSpace=wrap;html=1;align=center;" vertex="1" parent="1">
          <mxGeometry x="-385" y="780" width="120" height="60" as="geometry" />
        </mxCell>
        <mxCell id="4z_i1FKYldetgTwQ1s4s-3" value="" style="shape=link;html=1;rounded=0;" edge="1" parent="1" source="KwTNZy9iFzEqx0LIsOk2-112" target="KwTNZy9iFzEqx0LIsOk2-131">
          <mxGeometry relative="1" as="geometry">
            <mxPoint x="-320" y="320" as="sourcePoint" />
            <mxPoint x="-160" y="320" as="targetPoint" />
          </mxGeometry>
        </mxCell>
        <mxCell id="4z_i1FKYldetgTwQ1s4s-4" value="1" style="resizable=0;html=1;whiteSpace=wrap;align=right;verticalAlign=bottom;" connectable="0" vertex="1" parent="4z_i1FKYldetgTwQ1s4s-3">
          <mxGeometry x="1" relative="1" as="geometry">
            <mxPoint x="-4" y="26" as="offset" />
          </mxGeometry>
        </mxCell>
        <mxCell id="4z_i1FKYldetgTwQ1s4s-5" value="" style="endArrow=none;html=1;rounded=0;" edge="1" parent="1" source="KwTNZy9iFzEqx0LIsOk2-51" target="KwTNZy9iFzEqx0LIsOk2-131">
          <mxGeometry relative="1" as="geometry">
            <mxPoint x="-120" y="320" as="sourcePoint" />
            <mxPoint x="40" y="320" as="targetPoint" />
          </mxGeometry>
        </mxCell>
        <mxCell id="4z_i1FKYldetgTwQ1s4s-6" value="N" style="resizable=0;html=1;whiteSpace=wrap;align=right;verticalAlign=bottom;" connectable="0" vertex="1" parent="4z_i1FKYldetgTwQ1s4s-5">
          <mxGeometry x="1" relative="1" as="geometry">
            <mxPoint x="4" y="18" as="offset" />
          </mxGeometry>
        </mxCell>
        <mxCell id="4z_i1FKYldetgTwQ1s4s-7" value="" style="shape=link;html=1;rounded=0;" edge="1" parent="1" source="KwTNZy9iFzEqx0LIsOk2-112" target="7jd7Q7iama4mhCfgH1NF-9">
          <mxGeometry relative="1" as="geometry">
            <mxPoint x="-490" y="480" as="sourcePoint" />
            <mxPoint x="-60" y="520" as="targetPoint" />
          </mxGeometry>
        </mxCell>
        <mxCell id="4z_i1FKYldetgTwQ1s4s-8" value="M" style="resizable=0;html=1;whiteSpace=wrap;align=right;verticalAlign=bottom;" connectable="0" vertex="1" parent="4z_i1FKYldetgTwQ1s4s-7">
          <mxGeometry x="1" relative="1" as="geometry">
            <mxPoint x="11" y="-7" as="offset" />
          </mxGeometry>
        </mxCell>
        <mxCell id="4z_i1FKYldetgTwQ1s4s-9" value="" style="shape=link;html=1;rounded=0;" edge="1" parent="1" source="KwTNZy9iFzEqx0LIsOk2-84" target="7jd7Q7iama4mhCfgH1NF-9">
          <mxGeometry relative="1" as="geometry">
            <mxPoint x="-220" y="520" as="sourcePoint" />
            <mxPoint x="-60" y="520" as="targetPoint" />
          </mxGeometry>
        </mxCell>
        <mxCell id="4z_i1FKYldetgTwQ1s4s-10" value="N" style="resizable=0;html=1;whiteSpace=wrap;align=right;verticalAlign=bottom;" connectable="0" vertex="1" parent="4z_i1FKYldetgTwQ1s4s-9">
          <mxGeometry x="1" relative="1" as="geometry">
            <mxPoint x="30" y="5" as="offset" />
          </mxGeometry>
        </mxCell>
        <mxCell id="4z_i1FKYldetgTwQ1s4s-15" value="" style="endArrow=none;html=1;rounded=0;" edge="1" parent="1" source="KwTNZy9iFzEqx0LIsOk2-112" target="7jd7Q7iama4mhCfgH1NF-6">
          <mxGeometry relative="1" as="geometry">
            <mxPoint x="-220" y="420" as="sourcePoint" />
            <mxPoint x="-220" y="460" as="targetPoint" />
          </mxGeometry>
        </mxCell>
        <mxCell id="4z_i1FKYldetgTwQ1s4s-16" value="1" style="resizable=0;html=1;whiteSpace=wrap;align=right;verticalAlign=bottom;" connectable="0" vertex="1" parent="4z_i1FKYldetgTwQ1s4s-15">
          <mxGeometry x="1" relative="1" as="geometry">
            <mxPoint x="2" y="-4" as="offset" />
          </mxGeometry>
        </mxCell>
        <mxCell id="4z_i1FKYldetgTwQ1s4s-17" value="" style="shape=link;html=1;rounded=0;" edge="1" parent="1" source="4z_i1FKYldetgTwQ1s4s-19" target="7jd7Q7iama4mhCfgH1NF-6">
          <mxGeometry relative="1" as="geometry">
            <mxPoint x="-90" y="300" as="sourcePoint" />
            <mxPoint x="120" y="310" as="targetPoint" />
          </mxGeometry>
        </mxCell>
        <mxCell id="4z_i1FKYldetgTwQ1s4s-18" value="N" style="resizable=0;html=1;whiteSpace=wrap;align=right;verticalAlign=bottom;" connectable="0" vertex="1" parent="4z_i1FKYldetgTwQ1s4s-17">
          <mxGeometry x="1" relative="1" as="geometry">
            <mxPoint x="1" y="-11" as="offset" />
          </mxGeometry>
        </mxCell>
        <mxCell id="4z_i1FKYldetgTwQ1s4s-19" value="Badges" style="whiteSpace=wrap;html=1;align=center;" vertex="1" parent="1">
          <mxGeometry x="-820" y="360" width="100" height="40" as="geometry" />
        </mxCell>
        <mxCell id="4z_i1FKYldetgTwQ1s4s-20" value="user_id" style="ellipse;whiteSpace=wrap;html=1;align=center;fontStyle=4;" vertex="1" parent="1">
          <mxGeometry x="-800" y="290" width="50" height="20" as="geometry" />
        </mxCell>
        <mxCell id="4z_i1FKYldetgTwQ1s4s-21" value="id" style="ellipse;whiteSpace=wrap;html=1;align=center;" vertex="1" parent="1">
          <mxGeometry x="-710" y="350" width="20" height="20" as="geometry" />
        </mxCell>
        <mxCell id="4z_i1FKYldetgTwQ1s4s-22" value="name" style="ellipse;whiteSpace=wrap;html=1;align=center;" vertex="1" parent="1">
          <mxGeometry x="-850" y="330" width="40" height="20" as="geometry" />
        </mxCell>
        <mxCell id="4z_i1FKYldetgTwQ1s4s-23" value="date" style="ellipse;whiteSpace=wrap;html=1;align=center;" vertex="1" parent="1">
          <mxGeometry x="-820" y="310" width="30" height="20" as="geometry" />
        </mxCell>
        <mxCell id="4z_i1FKYldetgTwQ1s4s-24" value="class" style="ellipse;whiteSpace=wrap;html=1;align=center;" vertex="1" parent="1">
          <mxGeometry x="-720" y="320" width="30" height="20" as="geometry" />
        </mxCell>
        <mxCell id="4z_i1FKYldetgTwQ1s4s-25" value="tag_based" style="ellipse;whiteSpace=wrap;html=1;align=center;" vertex="1" parent="1">
          <mxGeometry x="-760" y="300" width="70" height="20" as="geometry" />
        </mxCell>
        <mxCell id="4z_i1FKYldetgTwQ1s4s-26" value="" style="endArrow=none;html=1;rounded=0;" edge="1" parent="1" source="4z_i1FKYldetgTwQ1s4s-20" target="4z_i1FKYldetgTwQ1s4s-19">
          <mxGeometry relative="1" as="geometry">
            <mxPoint x="-40" y="310" as="sourcePoint" />
            <mxPoint x="120" y="310" as="targetPoint" />
          </mxGeometry>
        </mxCell>
        <mxCell id="4z_i1FKYldetgTwQ1s4s-27" value="" style="endArrow=none;html=1;rounded=0;" edge="1" parent="1" source="4z_i1FKYldetgTwQ1s4s-21" target="4z_i1FKYldetgTwQ1s4s-19">
          <mxGeometry relative="1" as="geometry">
            <mxPoint x="-40" y="310" as="sourcePoint" />
            <mxPoint x="120" y="310" as="targetPoint" />
          </mxGeometry>
        </mxCell>
        <mxCell id="4z_i1FKYldetgTwQ1s4s-28" value="" style="endArrow=none;html=1;rounded=0;" edge="1" parent="1" source="4z_i1FKYldetgTwQ1s4s-19" target="4z_i1FKYldetgTwQ1s4s-22">
          <mxGeometry relative="1" as="geometry">
            <mxPoint x="-40" y="310" as="sourcePoint" />
            <mxPoint x="120" y="310" as="targetPoint" />
          </mxGeometry>
        </mxCell>
        <mxCell id="4z_i1FKYldetgTwQ1s4s-29" value="" style="endArrow=none;html=1;rounded=0;" edge="1" parent="1" source="4z_i1FKYldetgTwQ1s4s-19" target="4z_i1FKYldetgTwQ1s4s-23">
          <mxGeometry relative="1" as="geometry">
            <mxPoint x="-40" y="310" as="sourcePoint" />
            <mxPoint x="120" y="310" as="targetPoint" />
          </mxGeometry>
        </mxCell>
        <mxCell id="4z_i1FKYldetgTwQ1s4s-30" value="" style="endArrow=none;html=1;rounded=0;" edge="1" parent="1" source="4z_i1FKYldetgTwQ1s4s-24" target="4z_i1FKYldetgTwQ1s4s-19">
          <mxGeometry relative="1" as="geometry">
            <mxPoint x="-40" y="310" as="sourcePoint" />
            <mxPoint x="120" y="310" as="targetPoint" />
          </mxGeometry>
        </mxCell>
        <mxCell id="4z_i1FKYldetgTwQ1s4s-31" value="" style="endArrow=none;html=1;rounded=0;" edge="1" parent="1" source="4z_i1FKYldetgTwQ1s4s-25" target="4z_i1FKYldetgTwQ1s4s-19">
          <mxGeometry relative="1" as="geometry">
            <mxPoint x="-40" y="310" as="sourcePoint" />
            <mxPoint x="120" y="310" as="targetPoint" />
          </mxGeometry>
        </mxCell>
        <mxCell id="Dh1X2_Atyar8rGXClCiF-4" value="" style="endArrow=none;html=1;rounded=0;" edge="1" parent="1" source="KwTNZy9iFzEqx0LIsOk2-106" target="7jd7Q7iama4mhCfgH1NF-12">
          <mxGeometry relative="1" as="geometry">
            <mxPoint x="-365" y="750" as="sourcePoint" />
            <mxPoint x="-205" y="750" as="targetPoint" />
          </mxGeometry>
        </mxCell>
        <mxCell id="Dh1X2_Atyar8rGXClCiF-5" value="M" style="resizable=0;html=1;whiteSpace=wrap;align=right;verticalAlign=bottom;" connectable="0" vertex="1" parent="Dh1X2_Atyar8rGXClCiF-4">
          <mxGeometry x="1" relative="1" as="geometry" />
        </mxCell>
        <mxCell id="Dh1X2_Atyar8rGXClCiF-6" value="" style="endArrow=none;html=1;rounded=0;" edge="1" parent="1" source="KwTNZy9iFzEqx0LIsOk2-84" target="7jd7Q7iama4mhCfgH1NF-12">
          <mxGeometry relative="1" as="geometry">
            <mxPoint x="-265" y="720" as="sourcePoint" />
            <mxPoint x="-105" y="720" as="targetPoint" />
          </mxGeometry>
        </mxCell>
        <mxCell id="Dh1X2_Atyar8rGXClCiF-7" value="N" style="resizable=0;html=1;whiteSpace=wrap;align=right;verticalAlign=bottom;" connectable="0" vertex="1" parent="Dh1X2_Atyar8rGXClCiF-6">
          <mxGeometry x="1" relative="1" as="geometry" />
        </mxCell>
        <mxCell id="p7XNntAXNiPmrNaYjHf9-1" value="Category and Participation Rate" style="shape=rhombus;perimeter=rhombusPerimeter;whiteSpace=wrap;html=1;align=center;" vertex="1" parent="1">
          <mxGeometry x="-290" y="400" width="120" height="90" as="geometry" />
        </mxCell>
        <mxCell id="p7XNntAXNiPmrNaYjHf9-2" value="" style="shape=link;html=1;rounded=0;" edge="1" parent="1" source="KwTNZy9iFzEqx0LIsOk2-112" target="p7XNntAXNiPmrNaYjHf9-1">
          <mxGeometry relative="1" as="geometry">
            <mxPoint x="120" y="280" as="sourcePoint" />
            <mxPoint x="30" y="280" as="targetPoint" />
          </mxGeometry>
        </mxCell>
        <mxCell id="p7XNntAXNiPmrNaYjHf9-3" value="1" style="resizable=0;html=1;whiteSpace=wrap;align=right;verticalAlign=bottom;" connectable="0" vertex="1" parent="p7XNntAXNiPmrNaYjHf9-2">
          <mxGeometry x="1" relative="1" as="geometry">
            <mxPoint x="5" as="offset" />
          </mxGeometry>
        </mxCell>
        <mxCell id="p7XNntAXNiPmrNaYjHf9-4" value="" style="endArrow=none;html=1;rounded=0;" edge="1" parent="1" source="KwTNZy9iFzEqx0LIsOk2-51" target="p7XNntAXNiPmrNaYjHf9-1">
          <mxGeometry relative="1" as="geometry">
            <mxPoint x="-80" y="460" as="sourcePoint" />
            <mxPoint x="40" y="430" as="targetPoint" />
          </mxGeometry>
        </mxCell>
        <mxCell id="p7XNntAXNiPmrNaYjHf9-5" value="N" style="resizable=0;html=1;whiteSpace=wrap;align=right;verticalAlign=bottom;" connectable="0" vertex="1" parent="p7XNntAXNiPmrNaYjHf9-4">
          <mxGeometry x="1" relative="1" as="geometry">
            <mxPoint x="5" as="offset" />
          </mxGeometry>
        </mxCell>
        <mxCell id="p7XNntAXNiPmrNaYjHf9-6" value="" style="shape=link;html=1;rounded=0;" edge="1" parent="1" source="KwTNZy9iFzEqx0LIsOk2-84" target="p7XNntAXNiPmrNaYjHf9-1">
          <mxGeometry relative="1" as="geometry">
            <mxPoint x="10" y="380" as="sourcePoint" />
            <mxPoint x="170" y="380" as="targetPoint" />
          </mxGeometry>
        </mxCell>
        <mxCell id="p7XNntAXNiPmrNaYjHf9-7" value="M" style="resizable=0;html=1;whiteSpace=wrap;align=right;verticalAlign=bottom;" connectable="0" vertex="1" parent="p7XNntAXNiPmrNaYjHf9-6">
          <mxGeometry x="1" relative="1" as="geometry">
            <mxPoint x="30" y="13" as="offset" />
          </mxGeometry>
        </mxCell>
      </root>
    </mxGraphModel>
  </diagram>
</mxfile>
